<svg id="Layer_1" data-name="Layer 1" xmlns="http://www.w3.org/2000/svg" xmlns:xlink="http://www.w3.org/1999/xlink" viewBox="0 0 512 512"><defs><pattern id="USGS_8_Sewage_Disposal" data-name="USGS 8 Sewage Disposal" width="72" height="74.8" patternTransform="translate(-278.57 744.86) scale(2.71 2.71)" patternUnits="userSpaceOnUse" viewBox="0 0 72 74.8"><rect width="72" height="74.8" fill="none"/><line y1="73.95" x2="72" y2="73.95" fill="none" stroke="#1f191a" stroke-linecap="square" stroke-width="0.3"/><line y1="72.25" x2="72" y2="72.25" fill="none" stroke="#1f191a" stroke-linecap="square" stroke-width="0.3"/><line y1="70.55" x2="72" y2="70.55" fill="none" stroke="#1f191a" stroke-linecap="square" stroke-width="0.3"/><line y1="68.85" x2="72" y2="68.85" fill="none" stroke="#1f191a" stroke-linecap="square" stroke-width="0.3"/><line y1="67.15" x2="72" y2="67.15" fill="none" stroke="#1f191a" stroke-linecap="square" stroke-width="0.3"/><line y1="65.45" x2="72" y2="65.45" fill="none" stroke="#1f191a" stroke-linecap="square" stroke-width="0.3"/><line y1="63.75" x2="72" y2="63.75" fill="none" stroke="#1f191a" stroke-linecap="square" stroke-width="0.3"/><line y1="62.05" x2="72" y2="62.05" fill="none" stroke="#1f191a" stroke-linecap="square" stroke-width="0.3"/><line y1="60.35" x2="72" y2="60.35" fill="none" stroke="#1f191a" stroke-linecap="square" stroke-width="0.3"/><line y1="58.65" x2="72" y2="58.65" fill="none" stroke="#1f191a" stroke-linecap="square" stroke-width="0.3"/><line y1="56.95" x2="72" y2="56.95" fill="none" stroke="#1f191a" stroke-linecap="square" stroke-width="0.3"/><line y1="55.25" x2="72" y2="55.25" fill="none" stroke="#1f191a" stroke-linecap="square" stroke-width="0.3"/><line y1="53.55" x2="72" y2="53.55" fill="none" stroke="#1f191a" stroke-linecap="square" stroke-width="0.3"/><line y1="51.85" x2="72" y2="51.85" fill="none" stroke="#1f191a" stroke-linecap="square" stroke-width="0.3"/><line y1="50.15" x2="72" y2="50.15" fill="none" stroke="#1f191a" stroke-linecap="square" stroke-width="0.3"/><line y1="48.45" x2="72" y2="48.45" fill="none" stroke="#1f191a" stroke-linecap="square" stroke-width="0.3"/><line y1="46.75" x2="72" y2="46.75" fill="none" stroke="#1f191a" stroke-linecap="square" stroke-width="0.3"/><line y1="45.05" x2="72" y2="45.05" fill="none" stroke="#1f191a" stroke-linecap="square" stroke-width="0.3"/><line y1="43.35" x2="72" y2="43.35" fill="none" stroke="#1f191a" stroke-linecap="square" stroke-width="0.3"/><line y1="41.65" x2="72" y2="41.65" fill="none" stroke="#1f191a" stroke-linecap="square" stroke-width="0.3"/><line y1="39.95" x2="72" y2="39.95" fill="none" stroke="#1f191a" stroke-linecap="square" stroke-width="0.3"/><line y1="38.25" x2="72" y2="38.25" fill="none" stroke="#1f191a" stroke-linecap="square" stroke-width="0.3"/><line y1="36.55" x2="72" y2="36.55" fill="none" stroke="#1f191a" stroke-linecap="square" stroke-width="0.3"/><line y1="34.85" x2="72" y2="34.85" fill="none" stroke="#1f191a" stroke-linecap="square" stroke-width="0.3"/><line y1="33.15" x2="72" y2="33.15" fill="none" stroke="#1f191a" stroke-linecap="square" stroke-width="0.3"/><line y1="31.45" x2="72" y2="31.45" fill="none" stroke="#1f191a" stroke-linecap="square" stroke-width="0.3"/><line y1="29.75" x2="72" y2="29.75" fill="none" stroke="#1f191a" stroke-linecap="square" stroke-width="0.3"/><line y1="28.05" x2="72" y2="28.05" fill="none" stroke="#1f191a" stroke-linecap="square" stroke-width="0.3"/><line y1="26.35" x2="72" y2="26.35" fill="none" stroke="#1f191a" stroke-linecap="square" stroke-width="0.3"/><line y1="24.65" x2="72" y2="24.65" fill="none" stroke="#1f191a" stroke-linecap="square" stroke-width="0.3"/><line y1="22.95" x2="72" y2="22.95" fill="none" stroke="#1f191a" stroke-linecap="square" stroke-width="0.3"/><line y1="21.25" x2="72" y2="21.25" fill="none" stroke="#1f191a" stroke-linecap="square" stroke-width="0.3"/><line y1="19.55" x2="72" y2="19.55" fill="none" stroke="#1f191a" stroke-linecap="square" stroke-width="0.3"/><line y1="17.85" x2="72" y2="17.85" fill="none" stroke="#1f191a" stroke-linecap="square" stroke-width="0.3"/><line y1="16.15" x2="72" y2="16.15" fill="none" stroke="#1f191a" stroke-linecap="square" stroke-width="0.3"/><line y1="14.45" x2="72" y2="14.45" fill="none" stroke="#1f191a" stroke-linecap="square" stroke-width="0.3"/><line y1="12.75" x2="72" y2="12.75" fill="none" stroke="#1f191a" stroke-linecap="square" stroke-width="0.3"/><line y1="11.05" x2="72" y2="11.05" fill="none" stroke="#1f191a" stroke-linecap="square" stroke-width="0.3"/><line y1="9.35" x2="72" y2="9.35" fill="none" stroke="#1f191a" stroke-linecap="square" stroke-width="0.3"/><line y1="7.65" x2="72" y2="7.65" fill="none" stroke="#1f191a" stroke-linecap="square" stroke-width="0.3"/><line y1="5.95" x2="72" y2="5.95" fill="none" stroke="#1f191a" stroke-linecap="square" stroke-width="0.3"/><line y1="4.25" x2="72" y2="4.25" fill="none" stroke="#1f191a" stroke-linecap="square" stroke-width="0.3"/><line y1="2.55" x2="72" y2="2.55" fill="none" stroke="#1f191a" stroke-linecap="square" stroke-width="0.3"/><line y1="0.85" x2="72" y2="0.85" fill="none" stroke="#1f191a" stroke-linecap="square" stroke-width="0.3"/><line x1="-21.5" y1="7.65" x2="-10.25" y2="7.65" fill="none" stroke="#1f191a" stroke-linecap="square" stroke-width="0.3"/></pattern></defs><title>android-other</title><path d="M512,281.46c0,126.26-102.23,228.65-228.32,228.65-126.33,0-228.56-102.39-228.56-228.65S157.36,52.82,283.68,52.82C409.77,52.82,512,155.21,512,281.46Z" fill="url(#USGS_8_Sewage_Disposal)"/><path d="M495,264.49c0,126.26-102.23,228.65-228.32,228.65-126.33,0-228.56-102.39-228.56-228.65S140.39,35.84,266.72,35.84C392.81,35.84,495,138.23,495,264.49Z" fill="url(#USGS_8_Sewage_Disposal)"/><path d="M469.6,245.39C469.6,371.64,367.36,474,241.28,474,115,474,12.72,371.64,12.72,245.39S115,16.74,241.28,16.74C367.36,16.74,469.6,119.13,469.6,245.39Z" fill="#1f191a"/><path d="M463.23,234.78C463.23,361,361,463.42,234.92,463.42,108.59,463.42,6.36,361,6.36,234.78S108.59,6.13,234.92,6.13C361,6.13,463.23,108.52,463.23,234.78Z" fill="#333"/><path d="M469.6,245.39C469.6,371.64,367.36,474,241.28,474,115,474,12.72,371.64,12.72,245.39S115,16.74,241.28,16.74C367.36,16.74,469.6,119.13,469.6,245.39Z" fill="none" stroke="#1f191a" stroke-width="2.12"/><path d="M459,232.65C459,358.91,356.76,461.3,230.68,461.3,104.35,461.3,2.12,358.91,2.12,232.65S104.35,4,230.68,4C356.76,4,459,106.4,459,232.65Z" fill="#fff"/><path d="M459,232.65C459,358.91,356.76,461.3,230.68,461.3,104.35,461.3,2.12,358.91,2.12,232.65S104.35,4,230.68,4C356.76,4,459,106.4,459,232.65Z" fill="#fff"/><path d="M459,232.65C459,358.91,356.76,461.3,230.68,461.3,104.35,461.3,2.12,358.91,2.12,232.65S104.35,4,230.68,4C356.76,4,459,106.4,459,232.65Z" fill="none" stroke="#1f191a" stroke-width="4.24"/><path d="M130.42,195.35a12.73,12.73,0,0,0-12.83,12.78V270a12.83,12.83,0,0,0,25.66,0V208.13A12.77,12.77,0,0,0,130.42,195.35Z" fill="#434040"/><path d="M330.64,195.35a12.71,12.71,0,0,0-12.72,12.78V270a12.8,12.8,0,0,0,25.61,0V208.13A12.78,12.78,0,0,0,330.64,195.35Z" fill="#434040"/><path d="M154.66,195.35V310a19.12,19.12,0,0,0,19.11,19.14h20.49v32.56a12.75,12.75,0,1,0,25.5,0V329.15h21.75v32.56a12.8,12.8,0,0,0,25.61,0V329.15h20.49A19.13,19.13,0,0,0,306.77,310V195.35Z" fill="#434040"/><path d="M267.86,117.77l13.62-25.48-2.8-1.47L265,116.39a75.13,75.13,0,0,0-34.32-8.45A72.74,72.74,0,0,0,198,115.75L184.7,90.82l-2.85,1.47L195,117.13a75.54,75.54,0,0,0-39.86,66.07H306.24A75.34,75.34,0,0,0,267.86,117.77Zm-76.09,36.15a7,7,0,1,1,7.13-7.09A7.06,7.06,0,0,1,191.77,153.91Zm76.61,0a7,7,0,1,1,7.13-7.09A7.12,7.12,0,0,1,268.39,153.91Z" fill="#434040"/></svg>