<svg id="Layer_1" data-name="Layer 1" xmlns="http://www.w3.org/2000/svg" xmlns:xlink="http://www.w3.org/1999/xlink" viewBox="0 0 512 512"><defs><pattern id="USGS_8_Sewage_Disposal" data-name="USGS 8 Sewage Disposal" width="72" height="74.8" patternTransform="translate(-329.99 472.97) scale(2.71 2.71)" patternUnits="userSpaceOnUse" viewBox="0 0 72 74.8"><rect width="72" height="74.8" fill="none"/><line y1="73.95" x2="72" y2="73.95" fill="none" stroke="#1f191a" stroke-linecap="square" stroke-width="0.3"/><line y1="72.25" x2="72" y2="72.25" fill="none" stroke="#1f191a" stroke-linecap="square" stroke-width="0.3"/><line y1="70.55" x2="72" y2="70.55" fill="none" stroke="#1f191a" stroke-linecap="square" stroke-width="0.3"/><line y1="68.85" x2="72" y2="68.85" fill="none" stroke="#1f191a" stroke-linecap="square" stroke-width="0.3"/><line y1="67.15" x2="72" y2="67.15" fill="none" stroke="#1f191a" stroke-linecap="square" stroke-width="0.3"/><line y1="65.45" x2="72" y2="65.45" fill="none" stroke="#1f191a" stroke-linecap="square" stroke-width="0.3"/><line y1="63.75" x2="72" y2="63.75" fill="none" stroke="#1f191a" stroke-linecap="square" stroke-width="0.3"/><line y1="62.05" x2="72" y2="62.05" fill="none" stroke="#1f191a" stroke-linecap="square" stroke-width="0.3"/><line y1="60.35" x2="72" y2="60.35" fill="none" stroke="#1f191a" stroke-linecap="square" stroke-width="0.3"/><line y1="58.65" x2="72" y2="58.65" fill="none" stroke="#1f191a" stroke-linecap="square" stroke-width="0.3"/><line y1="56.95" x2="72" y2="56.95" fill="none" stroke="#1f191a" stroke-linecap="square" stroke-width="0.3"/><line y1="55.25" x2="72" y2="55.25" fill="none" stroke="#1f191a" stroke-linecap="square" stroke-width="0.3"/><line y1="53.55" x2="72" y2="53.55" fill="none" stroke="#1f191a" stroke-linecap="square" stroke-width="0.3"/><line y1="51.85" x2="72" y2="51.85" fill="none" stroke="#1f191a" stroke-linecap="square" stroke-width="0.3"/><line y1="50.15" x2="72" y2="50.15" fill="none" stroke="#1f191a" stroke-linecap="square" stroke-width="0.3"/><line y1="48.45" x2="72" y2="48.45" fill="none" stroke="#1f191a" stroke-linecap="square" stroke-width="0.3"/><line y1="46.75" x2="72" y2="46.75" fill="none" stroke="#1f191a" stroke-linecap="square" stroke-width="0.3"/><line y1="45.05" x2="72" y2="45.05" fill="none" stroke="#1f191a" stroke-linecap="square" stroke-width="0.3"/><line y1="43.35" x2="72" y2="43.35" fill="none" stroke="#1f191a" stroke-linecap="square" stroke-width="0.3"/><line y1="41.65" x2="72" y2="41.65" fill="none" stroke="#1f191a" stroke-linecap="square" stroke-width="0.3"/><line y1="39.95" x2="72" y2="39.95" fill="none" stroke="#1f191a" stroke-linecap="square" stroke-width="0.3"/><line y1="38.25" x2="72" y2="38.25" fill="none" stroke="#1f191a" stroke-linecap="square" stroke-width="0.3"/><line y1="36.55" x2="72" y2="36.55" fill="none" stroke="#1f191a" stroke-linecap="square" stroke-width="0.3"/><line y1="34.85" x2="72" y2="34.85" fill="none" stroke="#1f191a" stroke-linecap="square" stroke-width="0.3"/><line y1="33.15" x2="72" y2="33.15" fill="none" stroke="#1f191a" stroke-linecap="square" stroke-width="0.3"/><line y1="31.45" x2="72" y2="31.45" fill="none" stroke="#1f191a" stroke-linecap="square" stroke-width="0.3"/><line y1="29.75" x2="72" y2="29.75" fill="none" stroke="#1f191a" stroke-linecap="square" stroke-width="0.3"/><line y1="28.05" x2="72" y2="28.05" fill="none" stroke="#1f191a" stroke-linecap="square" stroke-width="0.3"/><line y1="26.35" x2="72" y2="26.35" fill="none" stroke="#1f191a" stroke-linecap="square" stroke-width="0.3"/><line y1="24.65" x2="72" y2="24.65" fill="none" stroke="#1f191a" stroke-linecap="square" stroke-width="0.3"/><line y1="22.95" x2="72" y2="22.95" fill="none" stroke="#1f191a" stroke-linecap="square" stroke-width="0.3"/><line y1="21.25" x2="72" y2="21.25" fill="none" stroke="#1f191a" stroke-linecap="square" stroke-width="0.3"/><line y1="19.55" x2="72" y2="19.55" fill="none" stroke="#1f191a" stroke-linecap="square" stroke-width="0.3"/><line y1="17.85" x2="72" y2="17.85" fill="none" stroke="#1f191a" stroke-linecap="square" stroke-width="0.3"/><line y1="16.15" x2="72" y2="16.15" fill="none" stroke="#1f191a" stroke-linecap="square" stroke-width="0.3"/><line y1="14.45" x2="72" y2="14.45" fill="none" stroke="#1f191a" stroke-linecap="square" stroke-width="0.3"/><line y1="12.75" x2="72" y2="12.75" fill="none" stroke="#1f191a" stroke-linecap="square" stroke-width="0.3"/><line y1="11.05" x2="72" y2="11.05" fill="none" stroke="#1f191a" stroke-linecap="square" stroke-width="0.3"/><line y1="9.35" x2="72" y2="9.35" fill="none" stroke="#1f191a" stroke-linecap="square" stroke-width="0.3"/><line y1="7.65" x2="72" y2="7.65" fill="none" stroke="#1f191a" stroke-linecap="square" stroke-width="0.3"/><line y1="5.95" x2="72" y2="5.95" fill="none" stroke="#1f191a" stroke-linecap="square" stroke-width="0.3"/><line y1="4.25" x2="72" y2="4.25" fill="none" stroke="#1f191a" stroke-linecap="square" stroke-width="0.3"/><line y1="2.55" x2="72" y2="2.55" fill="none" stroke="#1f191a" stroke-linecap="square" stroke-width="0.3"/><line y1="0.85" x2="72" y2="0.85" fill="none" stroke="#1f191a" stroke-linecap="square" stroke-width="0.3"/><line x1="-21.5" y1="7.65" x2="-10.25" y2="7.65" fill="none" stroke="#1f191a" stroke-linecap="square" stroke-width="0.3"/></pattern></defs><title>apple-other</title><path d="M512,281.34C512,408,409.64,510.11,283.5,510.11S55.12,408,55.12,281.34C55.12,155,157.48,52.82,283.5,52.82S512,155,512,281.34Z" fill="url(#USGS_8_Sewage_Disposal)"/><path d="M495,264.36C495,391,392.68,493.13,266.54,493.13S38.16,391,38.16,264.36C38.16,138,140.52,35.84,266.54,35.84S495,138,495,264.36Z" fill="url(#USGS_8_Sewage_Disposal)"/><path d="M469.6,245.26C469.6,371.9,367.24,474,241.09,474S12.72,371.9,12.72,245.26c0-126.38,102.36-228.52,228.38-228.52S469.6,118.88,469.6,245.26Z" fill="#1f191a"/><path d="M463.23,234.65c0,126.64-102.36,228.77-228.5,228.77S6.36,361.29,6.36,234.65C6.36,108.27,108.72,6.13,234.73,6.13S463.23,108.27,463.23,234.65Z" fill="#333"/><path d="M469.6,245.26C469.6,371.9,367.24,474,241.09,474S12.72,371.9,12.72,245.26c0-126.38,102.36-228.52,228.38-228.52S469.6,118.88,469.6,245.26Z" fill="none" stroke="#1f191a" stroke-width="2.12"/><path d="M459,232.53c0,126.64-102.36,228.77-228.5,228.77S2.12,359.16,2.12,232.53C2.12,106.14,104.48,4,230.49,4S459,106.14,459,232.53Z" fill="#fff"/><path d="M459,232.53c0,126.64-102.36,228.77-228.5,228.77S2.12,359.16,2.12,232.53C2.12,106.14,104.48,4,230.49,4S459,106.14,459,232.53Z" fill="#fff"/><path d="M459,232.53c0,126.64-102.36,228.77-228.5,228.77S2.12,359.16,2.12,232.53C2.12,106.14,104.48,4,230.49,4S459,106.14,459,232.53Z" fill="none" stroke="#1f191a" stroke-width="4.24"/><path d="M186.83,165.89c8.71,0,16.47,2.11,24.08,5,4.81,1.37,9.35,3.17,14.15,4.65,8.66,2.11,17.05,1,25.4-2.12,5.91-2.22,11.72-4.64,17.9-6.13,18.69-4.23,35.38,0,50.32,11.73a49.68,49.68,0,0,1,11.14,10.67c1.32,1.48,1.32,1.8-.42,2.75-15.58,9.51-24.6,23.46-26.14,41.43-1.58,17,3.59,31.93,15.36,44.18a52.75,52.75,0,0,0,18,12.48c2,.63,2,1,1.16,2.85a183.79,183.79,0,0,1-30.25,48.41,58.3,58.3,0,0,1-15,12.37,29.44,29.44,0,0,1-27.93,1c-3.91-1.37-7.66-3.49-11.67-4.86-13.15-4.33-26-3.49-38.76,1.69a91.6,91.6,0,0,1-10,4c-12.3,4.45-23.18,1.81-33.26-6a80.61,80.61,0,0,1-15.73-17.12,168.47,168.47,0,0,1-24.71-47,140.53,140.53,0,0,1-7.34-37.2c-.69-14,.37-27.91,6-40.59,8.87-20.62,23.87-34.35,45.3-40.8A39.24,39.24,0,0,1,186.83,165.89Z" fill="#434040" fill-rule="evenodd"/><path d="M278.65,112.84c-.11,12-3.8,21.87-9.87,31.07a53.24,53.24,0,0,1-28.51,21.67,30.7,30.7,0,0,1-11.14,1.69c-1.58,0-2.11-.31-2.27-2-1-8.56,1.06-16.7,4.65-24.42,7.34-15.65,19.38-25.79,35.27-31.5a39.66,39.66,0,0,1,9.93-2.12c1.43-.53,1.69.64,1.74,1.69A22.52,22.52,0,0,1,278.65,112.84Z" fill="#434040" fill-rule="evenodd"/></svg>